# xmcd
#
# Track frame offsets:
#	150
#	15199
#	29109
#	42020
#	59168
#	74128
#	89740
#
# Disc length: 1409 seconds
# Revision: 0
# Processed by: cddbd v1.5.2PL0 Copyright (c) Steve Scherf et al.
# Submitted via: dBpowerAMP V12.0
#
DISCID=65057f07
DTITLE=Shantell Ogden - Ghosts in the Field
DYEAR=2015
DGENRE=Country
TTITLE0=Ghosts in the Field
TTITLE1=Who Comes First
TTITLE2=Just a Little
TTITLE3=Be My Rain
TTITLE4=Blossom in the Dust
TTITLE5=God Counts Every Tear
TTITLE6=As Long As You're Mine
EXTD=
EXTT0=
EXTT1=
EXTT2=
EXTT3=
EXTT4=
EXTT5=
EXTT6=
PLAYORDER=
